HIERARCHY
ROOT mixamorig:Hips
{
  OFFSET 0 96.8 0
  CHANNELS 6 Xposition Yposition Zposition Zrotation Xrotation Yrotation
  JOINT mixamorig:Spine
  {
    OFFSET 0 12.3689 -3.99218
    CHANNELS 6 Xposition Yposition Zposition Zrotation Xrotation Yrotation
    JOINT mixamorig:Spine1
    {
      OFFSET 0 14.0303 0
      CHANNELS 6 Xposition Yposition Zposition Zrotation Xrotation Yrotation
      JOINT mixamorig:Spine2
      {
        OFFSET 0 5.60109 0
        CHANNELS 6 Xposition Yposition Zposition Zrotation Xrotation Yrotation
        JOINT mixamorig:Neck
        {
          OFFSET 0 23.8357 -5.66956
          CHANNELS 6 Xposition Yposition Zposition Zrotation Xrotation Yrotation
          JOINT mixamorig:Head
          {
            OFFSET 0 9.08726 0
            CHANNELS 6 Xposition Yposition Zposition Zrotation Xrotation Yrotation
            End Site
            {
              OFFSET 0 19.5091 9.42096
            }
          }
        }
        JOINT mixamorig:RightShoulder
        {
          OFFSET -6.92539 12.7236 -3.42068
          CHANNELS 6 Xposition Yposition Zposition Zrotation Xrotation Yrotation
          JOINT mixamorig:RightArm
          {
            OFFSET 0 11.9164 0
            CHANNELS 6 Xposition Yposition Zposition Zrotation Xrotation Yrotation
            JOINT mixamorig:RightForeArm
            {
              OFFSET -1.03322e-05 25.7 1.48965e-05
              CHANNELS 6 Xposition Yposition Zposition Zrotation Xrotation Yrotation
              JOINT mixamorig:RightHand
              {
                OFFSET -1.0694e-05 26.6 1.54182e-05
                CHANNELS 6 Xposition Yposition Zposition Zrotation Xrotation Yrotation
                JOINT mixamorig:RightHandThumb1
                {
                  OFFSET 2.51819 2.31438 1.47793
                  CHANNELS 6 Xposition Yposition Zposition Zrotation Xrotation Yrotation
                  JOINT mixamorig:RightHandThumb2
                  {
                    OFFSET 0 3.93334 0
                    CHANNELS 6 Xposition Yposition Zposition Zrotation Xrotation Yrotation
                    JOINT mixamorig:RightHandThumb3
                    {
                      OFFSET 0 3.20778 0
                      CHANNELS 6 Xposition Yposition Zposition Zrotation Xrotation Yrotation
                      End Site
                      {
                        OFFSET 0 2.41783 0
                      }
                    }
                  }
                }
                JOINT mixamorig:RightHandIndex1
                {
                  OFFSET 0 8.70165 0
                  CHANNELS 6 Xposition Yposition Zposition Zrotation Xrotation Yrotation
                  JOINT mixamorig:RightHandIndex2
                  {
                    OFFSET 0 3.42558 0
                    CHANNELS 6 Xposition Yposition Zposition Zrotation Xrotation Yrotation
                    JOINT mixamorig:RightHandIndex3
                    {
                      OFFSET 0 2.63863 0
                      CHANNELS 6 Xposition Yposition Zposition Zrotation Xrotation Yrotation
                      End Site
                      {
                        OFFSET 0 2.56659 0
                      }
                    }
                  }
                }
                JOINT mixamorig:RightHandMiddle1
                {
                  OFFSET -2.22417e-05 8.95076 3.74234e-05
                  CHANNELS 6 Xposition Yposition Zposition Zrotation Xrotation Yrotation
                  JOINT mixamorig:RightHandMiddle2
                  {
                    OFFSET 0 3.4742 0
                    CHANNELS 6 Xposition Yposition Zposition Zrotation Xrotation Yrotation
                    JOINT mixamorig:RightHandMiddle3
                    {
                      OFFSET 0 2.76997 0
                      CHANNELS 6 Xposition Yposition Zposition Zrotation Xrotation Yrotation
                      End Site
                      {
                        OFFSET 0 2.7668 0
                      }
                    }
                  }
                }
                JOINT mixamorig:RightHandRing1
                {
                  OFFSET -1.75131 8.54802 0.0404412
                  CHANNELS 6 Xposition Yposition Zposition Zrotation Xrotation Yrotation
                  JOINT mixamorig:RightHandRing2
                  {
                    OFFSET 0 3.17304 0
                    CHANNELS 6 Xposition Yposition Zposition Zrotation Xrotation Yrotation
                    JOINT mixamorig:RightHandRing3
                    {
                      OFFSET 0 2.71333 0
                      CHANNELS 6 Xposition Yposition Zposition Zrotation Xrotation Yrotation
                      End Site
                      {
                        OFFSET 0 2.47778 0
                      }
                    }
                  }
                }
                JOINT mixamorig:RightHandPinky1
                {
                  OFFSET -3.57399 7.58378 0.457001
                  CHANNELS 6 Xposition Yposition Zposition Zrotation Xrotation Yrotation
                  JOINT mixamorig:RightHandPinky2
                  {
                    OFFSET 0 3.3803 0
                    CHANNELS 6 Xposition Yposition Zposition Zrotation Xrotation Yrotation
                    JOINT mixamorig:RightHandPinky3
                    {
                      OFFSET 0 1.97184 0
                      CHANNELS 6 Xposition Yposition Zposition Zrotation Xrotation Yrotation
                      End Site
                      {
                        OFFSET 0 1.98666 0
                      }
                    }
                  }
                }
              }
            }
          }
        }
        JOINT mixamorig:LeftShoulder
        {
          OFFSET 6.92539 12.7236 -3.42068
          CHANNELS 6 Xposition Yposition Zposition Zrotation Xrotation Yrotation
          JOINT mixamorig:LeftArm
          {
            OFFSET 0 11.9164 0
            CHANNELS 6 Xposition Yposition Zposition Zrotation Xrotation Yrotation
            JOINT mixamorig:LeftForeArm
            {
              OFFSET 0 25.7 0
              CHANNELS 6 Xposition Yposition Zposition Zrotation Xrotation Yrotation
              JOINT mixamorig:LeftHand
              {
                OFFSET 0 26.6 0
                CHANNELS 6 Xposition Yposition Zposition Zrotation Xrotation Yrotation
                JOINT mixamorig:LeftHandThumb1
                {
                  OFFSET -2.51807 2.31564 1.48
                  CHANNELS 6 Xposition Yposition Zposition Zrotation Xrotation Yrotation
                  JOINT mixamorig:LeftHandThumb2
                  {
                    OFFSET 0 3.93157 0
                    CHANNELS 6 Xposition Yposition Zposition Zrotation Xrotation Yrotation
                    JOINT mixamorig:LeftHandThumb3
                    {
                      OFFSET 0 3.20977 0
                      CHANNELS 6 Xposition Yposition Zposition Zrotation Xrotation Yrotation
                      End Site
                      {
                        OFFSET 0 2.4231 0
                      }
                    }
                  }
                }
                JOINT mixamorig:LeftHandIndex1
                {
                  OFFSET 0 8.70165 0
                  CHANNELS 6 Xposition Yposition Zposition Zrotation Xrotation Yrotation
                  JOINT mixamorig:LeftHandIndex2
                  {
                    OFFSET 0 3.42522 0
                    CHANNELS 6 Xposition Yposition Zposition Zrotation Xrotation Yrotation
                    JOINT mixamorig:LeftHandIndex3
                    {
                      OFFSET 0 2.63834 0
                      CHANNELS 6 Xposition Yposition Zposition Zrotation Xrotation Yrotation
                      End Site
                      {
                        OFFSET 0 2.56879 0
                      }
                    }
                  }
                }
                JOINT mixamorig:LeftHandMiddle1
                {
                  OFFSET -3.43705e-05 8.9516 -3.05546e-05
                  CHANNELS 6 Xposition Yposition Zposition Zrotation Xrotation Yrotation
                  JOINT mixamorig:LeftHandMiddle2
                  {
                    OFFSET 0 3.4742 0
                    CHANNELS 6 Xposition Yposition Zposition Zrotation Xrotation Yrotation
                    JOINT mixamorig:LeftHandMiddle3
                    {
                      OFFSET 0 2.76997 0
                      CHANNELS 6 Xposition Yposition Zposition Zrotation Xrotation Yrotation
                      End Site
                      {
                        OFFSET 0 2.77266 0
                      }
                    }
                  }
                }
                JOINT mixamorig:LeftHandRing1
                {
                  OFFSET 1.75126 8.5489 0.0404023
                  CHANNELS 6 Xposition Yposition Zposition Zrotation Xrotation Yrotation
                  JOINT mixamorig:LeftHandRing2
                  {
                    OFFSET 0 2.95776 0
                    CHANNELS 6 Xposition Yposition Zposition Zrotation Xrotation Yrotation
                    JOINT mixamorig:LeftHandRing3
                    {
                      OFFSET 0 2.76997 0
                      CHANNELS 6 Xposition Yposition Zposition Zrotation Xrotation Yrotation
                      End Site
                      {
                        OFFSET -2.1854e-05 2.48294 0
                      }
                    }
                  }
                }
                JOINT mixamorig:LeftHandPinky1
                {
                  OFFSET 3.57398 7.58481 0.457164
                  CHANNELS 6 Xposition Yposition Zposition Zrotation Xrotation Yrotation
                  JOINT mixamorig:LeftHandPinky2
                  {
                    OFFSET 0 3.3803 0
                    CHANNELS 6 Xposition Yposition Zposition Zrotation Xrotation Yrotation
                    JOINT mixamorig:LeftHandPinky3
                    {
                      OFFSET 0 1.97184 0
                      CHANNELS 6 Xposition Yposition Zposition Zrotation Xrotation Yrotation
                      End Site
                      {
                        OFFSET 0 1.99582 0
                      }
                    }
                  }
                }
              }
            }
          }
        }
      }
    }
  }
  JOINT mixamorig:RightUpLeg
  {
    OFFSET -8.5 -8.19964 0.08092
    CHANNELS 6 Xposition Yposition Zposition Zrotation Xrotation Yrotation
    JOINT mixamorig:RightLeg
    {
      OFFSET 0 42.9009 0
      CHANNELS 6 Xposition Yposition Zposition Zrotation Xrotation Yrotation
      JOINT mixamorig:RightFoot
      {
        OFFSET 0 38.0864 0
        CHANNELS 6 Xposition Yposition Zposition Zrotation Xrotation Yrotation
        JOINT mixamorig:RightToeBase
        {
          OFFSET 0 14.087 0
          CHANNELS 6 Xposition Yposition Zposition Zrotation Xrotation Yrotation
          End Site
          {
            OFFSET 0 9.45955 0
          }
        }
      }
    }
  }
  JOINT mixamorig:LeftUpLeg
  {
    OFFSET 8.5 -8.19964 0.08092
    CHANNELS 6 Xposition Yposition Zposition Zrotation Xrotation Yrotation
    JOINT mixamorig:LeftLeg
    {
      OFFSET 0 42.9009 0
      CHANNELS 6 Xposition Yposition Zposition Zrotation Xrotation Yrotation
      JOINT mixamorig:LeftFoot
      {
        OFFSET 0 38.0864 0
        CHANNELS 6 Xposition Yposition Zposition Zrotation Xrotation Yrotation
        JOINT mixamorig:LeftToeBase
        {
          OFFSET 0 14.087 0
          CHANNELS 6 Xposition Yposition Zposition Zrotation Xrotation Yrotation
          End Site
          {
            OFFSET 0 9.45957 0
          }
        }
      }
    }
  }
}
MOTION
Frames:	4
Frame Time:	0.0166667
-68.7898 94.5166 -238.558 -5.96458 8.07086 35.3603 -1.42109e-14 12.3689 -3.99218 -0.404669 8.66031 1.29515 0 14.0303 -5.68434e-14 -0.260025 -9.95102 1.4469 -1.42109e-14 5.60109 0 -0.215286 0.14397 1.06011 -1.82323e-06 23.8357 -5.66956 3.86186e-06 29.2987 -9.90584e-06 1.42109e-14 9.08727 0 -3.18055e-15 3.18055e-15 -9.54166e-15 -6.92539 12.7236 -3.42068 62.1932 12.7778 -79.8153 0 11.9164 0 -68.3301 12.0409 39.2202 -1.03322e-05 25.7 1.48965e-05 -22.2149 0.377065 -15.8893 -1.0694e-05 26.6 1.54182e-05 -18.5063 22.8571 -2.336 2.51819 2.31438 1.47793 -30.9004 26.556 14.9798 0 3.93334 -1.42109e-14 1.06543 -0.266601 -0.131651 -2.84217e-14 3.20778 2.84217e-14 0.7928 -0.191401 -0.091243 -3.49832e-06 8.70165 5.04374e-06 -0.0188237 -6.94349e-05 7.95139e-16 -2.84217e-14 3.42558 -1.42109e-14 0.0292947 4.37326e-15 -7.95139e-16 -3.12639e-13 2.63863 -8.23349e-10 -0.0100751 -2.38542e-15 7.95139e-16 -2.22417e-05 8.95076 3.74234e-05 -0.0575027 -0.000112091 1.59028e-15 0 3.4742 0 0.0973881 -2.78299e-15 -2.38542e-15 -2.27374e-13 2.76997 -1.44708e-08 -0.0368804 -1.59028e-15 -1.59028e-15 -1.75131 8.54802 0.0404412 0.0178567 7.9792e-06 1.59028e-15 0 3.17304 -2.84217e-14 -0.0253838 1.59028e-15 -1.59028e-15 2.27374e-13 2.71333 7.70186e-10 -0.0129265 -3.57812e-15 -0 -3.57399 7.58378 0.457001 0.0596292 0.000535225 7.95139e-16 -2.84217e-14 3.3803 -4.26326e-14 0.096971 -2.38542e-15 7.95139e-16 -5.68434e-14 1.97184 -1.98723e-08 -0.0569265 4.77083e-15 -7.95139e-16 6.92539 12.7236 -3.42068 -62.1891 12.7776 79.8154 -5.68434e-14 11.9164 0 78.8065 7.02869 -42.8137 0 25.7 0 -9.08449 -6.4032 10.0454 -2.00089e-11 26.6 0 -6.29707 24.8994 18.0779 -2.51807 2.31564 1.48 30.7775 26.5578 -14.9111 0 3.93157 -1.42109e-14 -0.940956 -0.237838 0.117539 1.42109e-14 3.20977 2.84217e-14 -0.695804 -0.175996 0.084333 -6.53699e-12 8.70165 1.42109e-14 -0.0050508 7.6384e-05 -0 -2.84217e-14 3.42522 -1.42109e-14 0.0120434 3.90438e-05 -0 -6.53699e-13 2.63834 4.26326e-14 -0.00759159 3.83596e-05 -3.18055e-15 -3.43705e-05 8.9516 -3.05546e-05 -0.00362641 4.68076e-05 -0 0 3.4742 1.42109e-14 0.0024289 -1.87453e-05 6.36111e-15 -2.70006e-12 2.76997 -1.42109e-14 0.00237084 -4.89982e-05 3.18055e-15 1.75126 8.5489 0.0404023 0.000723448 7.16082e-05 -0 -2.84217e-14 2.95776 -2.84217e-14 3.18055e-15 -3.18055e-15 -0 2.48198e-06 2.76997 4.89191e-07 0 0 -3.18055e-15 3.57398 7.58481 0.457164 0.234317 -0.000570151 2.33218e-06 -2.84217e-14 3.3803 1.42109e-14 -0.0241399 7.20261e-05 -0 1.98952e-13 1.97184 4.26326e-14 -0.00768704 1.21015e-05 -0 -8.5 -8.19964 0.08092 175.897 28.0749 -4.62645 -1.42109e-14 42.9009 0 -0.113734 -16.5974 -2.08578 0 38.0864 0 11.2773 61.2973 -8.43147 1.42109e-14 14.087 0 -1.55001e-05 39.1744 5.51545e-06 8.5 -8.19964 0.08092 -159.177 19.5359 -45.3673 0 42.9009 0 2.4373 -20.3505 13.2271 2.84217e-14 38.0864 0 -13.3885 66.559 10.7692 0 14.087 -2.84217e-14 -1.59485e-05 39.1744 5.46156e-06 
-68.7596 94.4145 -238.472 -6.23228 8.39286 35.2785 2.84217e-14 12.3689 -3.99218 -0.436654 8.6686 1.31141 0 14.0303 0 -0.295168 -9.94131 1.45929 0 5.60109 -2.84217e-14 -0.240388 0.150974 1.0726 -1.82323e-06 23.8357 -5.66956 3.86186e-06 29.2987 -9.90584e-06 2.84217e-14 9.08727 0 -3.18055e-15 6.36111e-15 -6.36111e-15 -6.92539 12.7236 -3.42068 62.1228 12.773 -79.8179 0 11.9164 0 -68.1923 11.8216 39.1915 -1.03322e-05 25.7 1.48965e-05 -22.4454 0.169996 -15.6713 -1.0694e-05 26.6 1.54182e-05 -18.4863 22.7893 -2.28035 2.51819 2.31438 1.47793 -30.9004 26.556 14.9798 0 3.93334 -2.13163e-14 1.06543 -0.266601 -0.131651 -2.84217e-14 3.20778 1.42109e-14 0.7928 -0.191401 -0.091243 -3.49832e-06 8.70165 5.04374e-06 -0.0188237 -6.94349e-05 -0 0 3.42558 1.42109e-14 0.0292947 4.37326e-15 7.95139e-16 -3.12639e-13 2.63863 -8.23334e-10 -0.0100751 1.59028e-15 -7.95139e-16 -2.22417e-05 8.95076 3.74234e-05 -0.0575027 -0.000112091 -2.38542e-15 -2.84217e-14 3.4742 -2.84217e-14 0.0973881 -6.36111e-15 3.18055e-15 -2.27374e-13 2.76997 -1.44708e-08 -0.0368804 1.59028e-15 -3.18055e-15 -1.75131 8.54802 0.0404412 0.0178567 7.9792e-06 7.95139e-16 -2.84217e-14 3.17304 -1.42109e-14 -0.0253838 0 7.95139e-16 2.55795e-13 2.71333 7.70171e-10 -0.0129265 4.37326e-15 -1.59028e-15 -3.57399 7.58378 0.457001 0.0596292 0.000535225 -1.59028e-15 0 3.3803 -5.68434e-14 0.096971 5.96354e-15 -7.95139e-16 -5.68434e-14 1.97184 -1.98723e-08 -0.0569265 -2.38542e-15 -0 6.92539 12.7236 -3.42068 -62.1003 12.7715 79.8187 0 11.9164 -1.42109e-14 78.5669 6.735 -42.5526 -1.42109e-14 25.7 0 -8.71349 -6.48061 9.67897 -2.00373e-11 26.6 2.84217e-14 -6.15402 24.8392 17.8842 -2.51807 2.31564 1.48 30.7775 26.5578 -14.9111 -7.10543e-15 3.93157 0 -0.940956 -0.237838 0.117539 0 3.20977 7.10543e-14 -0.695804 -0.175996 0.084333 -6.56541e-12 8.70165 0 -0.0050508 7.6384e-05 -3.18055e-15 0 3.42522 -2.84217e-14 0.0120434 3.90438e-05 3.18055e-15 -6.82121e-13 2.63834 4.26326e-14 -0.00759159 3.83596e-05 -0 -3.43705e-05 8.9516 -3.05546e-05 -0.00362641 4.68076e-05 -0 0 3.4742 -1.42109e-14 0.0024289 -1.87453e-05 -0 -2.70006e-12 2.76997 -2.84217e-14 0.00237084 -4.89982e-05 3.18055e-15 1.75126 8.5489 0.0404023 0.000723448 7.16082e-05 -0 -2.84217e-14 2.95776 -2.84217e-14 3.18055e-15 -3.18055e-15 -0 2.48198e-06 2.76997 4.89192e-07 6.36111e-15 3.18055e-15 3.18055e-15 3.57398 7.58481 0.457164 0.234317 -0.000570151 2.33218e-06 -2.84217e-14 3.3803 1.42109e-14 -0.0241399 7.20261e-05 3.18055e-15 2.27374e-13 1.97184 4.26326e-14 -0.00768704 1.21015e-05 -3.18055e-15 -8.5 -8.19964 0.08092 175.977 29.133 -4.7386 1.42109e-14 42.9009 0 0.118616 -17.1914 -2.04794 -2.84217e-14 38.0864 2.84217e-14 11.1065 60.621 -8.23008 -1.42109e-14 14.087 0 -1.55001e-05 39.1744 5.51545e-06 8.5 -8.19964 0.08092 -159.017 19.8073 -45.1965 2.84217e-14 42.9009 0 2.23043 -20.0874 12.891 0 38.0864 0 -13.0589 65.7292 10.3323 2.84217e-14 14.087 0 -1.59485e-05 39.1744 5.46156e-06 
-69.173 94.1118 -238.553 -6.51112 8.70951 35.2807 0 12.3689 -3.99218 -0.45339 8.68941 1.29536 0 14.0303 0 -0.317734 -9.91712 1.43664 0 5.60109 -2.84217e-14 -0.255797 0.16832 1.05876 -1.82323e-06 23.8357 -5.66956 3.86186e-06 29.2987 -9.90584e-06 -1.42109e-14 9.08727 0 -3.18055e-15 6.36111e-15 -1.59028e-14 -6.92539 12.7236 -3.42068 62.0746 12.7697 -79.8197 0 11.9164 0 -68.0657 11.5367 39 -1.03322e-05 25.7 1.48965e-05 -22.6892 -0.0686534 -15.4521 -1.0694e-05 26.6 1.54182e-05 -18.5051 22.5729 -2.125 2.51819 2.31438 1.47793 -30.9004 26.556 14.9798 0 3.93334 -7.10543e-15 1.06543 -0.266601 -0.131651 0 3.20778 1.42109e-14 0.7928 -0.191401 -0.091243 -3.49832e-06 8.70165 5.04374e-06 -0.0188237 -6.94349e-05 2.38542e-15 0 3.42558 -1.42109e-14 0.0292947 -8.74653e-15 -7.95139e-16 -2.84217e-13 2.63863 -8.23334e-10 -0.0100751 -1.07344e-14 7.95139e-16 -2.22417e-05 8.95076 3.74234e-05 -0.0575027 -0.000112091 -0 0 3.4742 -1.42109e-14 0.0973881 1.59028e-15 -0 -2.27374e-13 2.76997 -1.44708e-08 -0.0368804 -3.97569e-15 -2.38542e-15 -1.75131 8.54802 0.0404412 0.0178567 7.9792e-06 1.59028e-15 -2.84217e-14 3.17304 -2.84217e-14 -0.0253838 1.19271e-15 -0 2.55795e-13 2.71333 7.70171e-10 -0.0129265 -7.95139e-16 -7.95139e-16 -3.57399 7.58378 0.457001 0.0596292 0.000535225 1.59028e-15 -2.84217e-14 3.3803 -1.42109e-14 0.096971 -2.78299e-15 -7.95139e-16 -5.68434e-14 1.97184 -1.98723e-08 -0.0569265 -3.18055e-15 -0 6.92539 12.7236 -3.42068 -62.0244 12.7663 79.8216 0 11.9164 -2.84217e-14 78.2966 6.34668 -42.1356 0 25.7 0 -8.37847 -6.54413 9.22098 -2.00231e-11 26.6 0 -6.03773 24.6589 17.6323 -2.51807 2.31564 1.48 30.7775 26.5578 -14.9111 -7.10543e-15 3.93157 1.42109e-14 -0.940956 -0.237838 0.117539 7.10543e-15 3.20977 5.68434e-14 -0.695804 -0.175996 0.084333 -6.56541e-12 8.70165 2.84217e-14 -0.0050508 7.6384e-05 -6.36111e-15 -2.84217e-14 3.42522 -1.42109e-14 0.0120434 3.90438e-05 -0 -6.82121e-13 2.63834 2.84217e-14 -0.00759159 3.83596e-05 -3.18055e-15 -3.43705e-05 8.9516 -3.05546e-05 -0.00362641 4.68076e-05 -3.18055e-15 2.84217e-14 3.4742 1.42109e-14 0.0024289 -1.87453e-05 -0 -2.67164e-12 2.76997 -2.84217e-14 0.00237084 -4.89982e-05 -0 1.75126 8.5489 0.0404023 0.000723448 7.16082e-05 -3.18055e-15 0 2.95776 -1.42109e-14 6.36111e-15 0 -0 2.48198e-06 2.76997 4.89192e-07 -0 -3.18055e-15 -0 3.57398 7.58481 0.457164 0.234317 -0.000570151 2.33218e-06 2.84217e-14 3.3803 4.26326e-14 -0.0241399 7.20261e-05 6.36111e-15 2.27374e-13 1.97184 5.68434e-14 -0.00768704 1.21015e-05 6.36111e-15 -8.5 -8.19964 0.08092 176.077 30.5484 -4.64391 -1.42109e-14 42.9009 0 0.403824 -18.0483 -2.23312 -4.26326e-14 38.0864 0 10.9092 59.9111 -8.02732 0 14.087 1.42109e-14 -1.55001e-05 39.1744 5.51545e-06 8.5 -8.19964 0.08092 -158.848 20.0168 -44.9261 2.84217e-14 42.9009 0 1.91564 -19.6581 12.3999 2.84217e-14 38.0864 0 -12.671 64.7272 9.8268 0 14.087 0 -1.59485e-05 39.1744 5.46156e-06 
-69.6524 93.6609 -238.617 -6.82988 9.0403 35.3071 -1.42109e-14 12.3689 -3.99218 -0.472988 8.7347 1.27654 2.84217e-14 14.0303 -5.68434e-14 -0.344172 -9.86437 1.41003 0 5.60109 0 -0.273807 0.206063 1.04248 -1.82323e-06 23.8357 -5.66956 3.86186e-06 29.2987 -9.90584e-06 0 9.08727 0 0 1.59028e-14 -0 -6.92539 12.7236 -3.42068 62.0229 12.7662 -79.8216 -2.84217e-14 11.9164 -2.84217e-14 -67.8873 11.156 38.6761 -1.03322e-05 25.7 1.48965e-05 -22.9101 -0.294346 -15.2572 -1.0694e-05 26.6 1.54182e-05 -18.5559 22.2728 -1.98989 2.51819 2.31438 1.47793 -30.9004 26.556 14.9798 0 3.93334 -1.42109e-14 1.06543 -0.266601 -0.131651 -5.68434e-14 3.20778 2.13163e-14 0.7928 -0.191401 -0.091243 -3.49832e-06 8.70165 5.04374e-06 -0.0188237 -6.94349e-05 -0 2.84217e-14 3.42558 0 0.0292947 -2.78299e-15 1.59028e-15 -2.84217e-13 2.63863 -8.2332e-10 -0.0100751 1.19271e-15 2.38542e-15 -2.22417e-05 8.95076 3.74234e-05 -0.0575027 -0.000112091 -2.38542e-15 0 3.4742 -1.42109e-14 0.0973881 -5.76476e-15 -3.18055e-15 -2.55795e-13 2.76997 -1.44708e-08 -0.0368804 -5.1684e-15 1.59028e-15 -1.75131 8.54802 0.0404412 0.0178567 7.9792e-06 -0 -2.84217e-14 3.17304 -2.84217e-14 -0.0253838 7.55382e-15 2.38542e-15 2.27374e-13 2.71333 7.70157e-10 -0.0129265 1.39149e-15 -2.38542e-15 -3.57399 7.58378 0.457001 0.0596292 0.000535225 -7.95139e-16 0 3.3803 -1.42109e-14 0.096971 7.95139e-15 7.95139e-16 -2.84217e-14 1.97184 -1.98723e-08 -0.0569265 -8.74653e-15 1.59028e-15 6.92539 12.7236 -3.42068 -61.9097 12.7584 79.8258 0 11.9164 -2.84217e-14 78.001 5.81059 -41.6178 0 25.7 0 -8.08782 -6.64899 8.8031 -2.00373e-11 26.6 -2.84217e-14 -5.89903 24.3693 17.2001 -2.51807 2.31564 1.48 30.7775 26.5578 -14.9111 0 3.93157 1.42109e-14 -0.940956 -0.237838 0.117539 -7.10543e-15 3.20977 8.52651e-14 -0.695804 -0.175996 0.084333 -6.56541e-12 8.70165 1.42109e-14 -0.0050508 7.6384e-05 -3.18055e-15 0 3.42522 -2.84217e-14 0.0120434 3.90438e-05 3.18055e-15 -6.82121e-13 2.63834 2.84217e-14 -0.00759159 3.83596e-05 -0 -3.43705e-05 8.9516 -3.05546e-05 -0.00362641 4.68076e-05 -3.18055e-15 -2.84217e-14 3.4742 0 0.0024289 -1.87453e-05 3.18055e-15 -2.70006e-12 2.76997 -1.42109e-14 0.00237084 -4.89982e-05 6.36111e-15 1.75126 8.5489 0.0404023 0.000723448 7.16082e-05 -3.18055e-15 0 2.95776 -1.42109e-14 -3.18055e-15 1.27222e-14 3.18055e-15 2.48198e-06 2.76997 4.89191e-07 -6.36111e-15 -3.18055e-15 3.18055e-15 3.57398 7.58481 0.457164 0.234317 -0.000570151 2.33218e-06 0 3.3803 2.84217e-14 -0.0241399 7.20261e-05 -0 2.55795e-13 1.97184 4.26326e-14 -0.00768704 1.21015e-05 -3.18055e-15 -8.5 -8.19964 0.08092 176.175 32.2524 -4.53419 -1.42109e-14 42.9009 0 0.776232 -19.3829 -2.36688 0 38.0864 0 10.7487 59.2523 -7.86563 -1.42109e-14 14.087 -1.42109e-14 -1.55001e-05 39.1744 5.51545e-06 8.5 -8.19964 0.08092 -158.535 20.2068 -44.7246 0 42.9009 -1.42109e-14 1.40014 -19.4134 12.0193 -2.84217e-14 38.0864 -2.84217e-14 -12.2476 63.5839 9.3047 2.84217e-14 14.087 0 -1.59485e-05 39.1744 5.46156e-06 
